<svg width="20" height="20" viewBox="0 0 20 20" fill="none" xmlns="http://www.w3.org/2000/svg">
<path d="M7 16C7.28333 16 7.521 15.904 7.713 15.712C7.905 15.52 8.00067 15.2827 8 15C7.99933 14.7173 7.90333 14.48 7.712 14.288C7.52067 14.096 7.28333 14 7 14C6.71667 14 6.47933 14.096 6.288 14.288C6.09667 14.48 6.00067 14.7173 6 15C5.99933 15.2827 6.09533 15.5203 6.288 15.713C6.48067 15.9057 6.718 16.0013 7 16ZM10 16C10.2833 16 10.521 15.904 10.713 15.712C10.905 15.52 11.0007 15.2827 11 15C10.9993 14.7173 10.9033 14.48 10.712 14.288C10.5207 14.096 10.2833 14 10 14C9.71667 14 9.47933 14.096 9.288 14.288C9.09667 14.48 9.00067 14.7173 9 15C8.99933 15.2827 9.09533 15.5203 9.288 15.713C9.48067 15.9057 9.718 16.0013 10 16ZM13 16C13.2833 16 13.521 15.904 13.713 15.712C13.905 15.52 14.0007 15.2827 14 15C13.9993 14.7173 13.9033 14.48 13.712 14.288C13.5207 14.096 13.2833 14 13 14C12.7167 14 12.4793 14.096 12.288 14.288C12.0967 14.48 12.0007 14.7173 12 15C11.9993 15.2827 12.0953 15.5203 12.288 15.713C12.4807 15.9057 12.718 16.0013 13 16ZM7 13C7.28333 13 7.521 12.904 7.713 12.712C7.905 12.52 8.00067 12.2827 8 12C7.99933 11.7173 7.90333 11.48 7.712 11.288C7.52067 11.096 7.28333 11 7 11C6.71667 11 6.47933 11.096 6.288 11.288C6.09667 11.48 6.00067 11.7173 6 12C5.99933 12.2827 6.09533 12.5203 6.288 12.713C6.48067 12.9057 6.718 13.0013 7 13ZM10 13C10.2833 13 10.521 12.904 10.713 12.712C10.905 12.52 11.0007 12.2827 11 12C10.9993 11.7173 10.9033 11.48 10.712 11.288C10.5207 11.096 10.2833 11 10 11C9.71667 11 9.47933 11.096 9.288 11.288C9.09667 11.48 9.00067 11.7173 9 12C8.99933 12.2827 9.09533 12.5203 9.288 12.713C9.48067 12.9057 9.718 13.0013 10 13ZM13 13C13.2833 13 13.521 12.904 13.713 12.712C13.905 12.52 14.0007 12.2827 14 12C13.9993 11.7173 13.9033 11.48 13.712 11.288C13.5207 11.096 13.2833 11 13 11C12.7167 11 12.4793 11.096 12.288 11.288C12.0967 11.48 12.0007 11.7173 12 12C11.9993 12.2827 12.0953 12.5203 12.288 12.713C12.4807 12.9057 12.718 13.0013 13 13ZM5 10H15V9C15 7.61667 14.5123 6.43767 13.537 5.463C12.5617 4.48833 11.3827 4.00067 10 4C8.61733 3.99933 7.43833 4.487 6.463 5.463C5.48767 6.439 5 7.618 5 9V10ZM6.55 8.5C6.68333 7.65 7.071 6.93767 7.713 6.363C8.355 5.78833 9.11733 5.50067 10 5.5C10.8827 5.49933 11.6453 5.787 12.288 6.363C12.9307 6.939 13.318 7.65133 13.45 8.5H6.55ZM0 20V0H20V20H0ZM2 18H18V2H2V18Z" fill="black"/>
</svg>
