<svg width="14" height="15" viewBox="0 0 14 15" fill="none" xmlns="http://www.w3.org/2000/svg">
<path d="M7 3.25C7 3.44891 6.92098 3.63968 6.78033 3.78033C6.63968 3.92098 6.44891 4 6.25 4H5.25C5.05109 4 4.86032 3.92098 4.71967 3.78033C4.57902 3.63968 4.5 3.44891 4.5 3.25C4.5 3.05109 4.57902 2.86032 4.71967 2.71967C4.86032 2.57902 5.05109 2.5 5.25 2.5H6.25C6.44891 2.5 6.63968 2.57902 6.78033 2.71967C6.92098 2.86032 7 3.05109 7 3.25ZM10.0094 11.2262L10.2375 12.8231C10.2628 13.0004 10.2498 13.1811 10.1992 13.3529C10.1487 13.5247 10.0618 13.6837 9.9444 13.819C9.82705 13.9543 9.682 14.0628 9.51906 14.1372C9.35612 14.2115 9.1791 14.25 9 14.25H5C4.8209 14.25 4.64388 14.2115 4.48094 14.1372C4.318 14.0628 4.17295 13.9543 4.0556 13.819C3.93825 13.6837 3.85135 13.5247 3.80078 13.3529C3.75021 13.1811 3.73716 13.0004 3.7625 12.8231L3.99062 11.2262C3.00992 10.6869 2.19191 9.89423 1.62191 8.931C1.05191 7.96777 0.750805 6.86924 0.75 5.75C0.75 5.55109 0.829018 5.36032 0.96967 5.21967C1.11032 5.07902 1.30109 5 1.5 5H2.25V1.5C2.25 1.16848 2.3817 0.850537 2.61612 0.616117C2.85054 0.381696 3.16848 0.25 3.5 0.25H10.5C10.8315 0.25 11.1495 0.381696 11.3839 0.616117C11.6183 0.850537 11.75 1.16848 11.75 1.5V5H12.5C12.6989 5 12.8897 5.07902 13.0303 5.21967C13.171 5.36032 13.25 5.55109 13.25 5.75C13.2492 6.86924 12.9481 7.96777 12.3781 8.931C11.8081 9.89423 10.9901 10.6869 10.0094 11.2262ZM3.75 5H10.25V1.75H3.75V5ZM8.57563 11.7987C7.54234 12.0671 6.45766 12.0671 5.42438 11.7987L5.28813 12.75H8.71187L8.57563 11.7987ZM11.6906 6.5H2.3125C2.49061 7.61588 3.06071 8.63172 3.92041 9.36509C4.78012 10.0985 5.87312 10.5013 7.00313 10.5013C8.13314 10.5013 9.22613 10.0985 10.0858 9.36509C10.9455 8.63172 11.5156 7.61588 11.6938 6.5H11.6906Z" fill="#03045E"/>
</svg>
