<svg width="14" height="10" viewBox="0 0 14 10" fill="none" xmlns="http://www.w3.org/2000/svg">
<path d="M12.9997 4.18668V2.33334C12.9997 1.23334 12.0997 0.333344 10.9997 0.333344H8.33301C7.81967 0.333344 7.35301 0.533344 6.99967 0.853344C6.64634 0.533344 6.17967 0.333344 5.66634 0.333344H2.99967C1.89967 0.333344 0.999674 1.23334 0.999674 2.33334V4.18668C0.593008 4.55334 0.333008 5.08001 0.333008 5.66668V9.00001C0.333008 9.36668 0.633008 9.66668 0.999674 9.66668C1.36634 9.66668 1.66634 9.36668 1.66634 9.00001V8.33334H12.333V9.00001C12.333 9.36668 12.633 9.66668 12.9997 9.66668C13.3663 9.66668 13.6663 9.36668 13.6663 9.00001V5.66668C13.6663 5.08001 13.4063 4.55334 12.9997 4.18668ZM8.33301 1.66668H10.9997C11.3663 1.66668 11.6663 1.96668 11.6663 2.33334V3.66668H7.66634V2.33334C7.66634 1.96668 7.96634 1.66668 8.33301 1.66668ZM2.33301 2.33334C2.33301 1.96668 2.63301 1.66668 2.99967 1.66668H5.66634C6.03301 1.66668 6.33301 1.96668 6.33301 2.33334V3.66668H2.33301V2.33334ZM1.66634 7.00001V5.66668C1.66634 5.30001 1.96634 5.00001 2.33301 5.00001H11.6663C12.033 5.00001 12.333 5.30001 12.333 5.66668V7.00001H1.66634Z" fill="#03045E"/>
</svg>
