<svg width="18" height="18" viewBox="0 0 18 18" fill="none" xmlns="http://www.w3.org/2000/svg">
<path d="M9.00033 0.666748C4.39199 0.666748 0.666992 4.39175 0.666992 9.00008C0.666992 13.6084 4.39199 17.3334 9.00033 17.3334C13.6087 17.3334 17.3337 13.6084 17.3337 9.00008C17.3337 4.39175 13.6087 0.666748 9.00033 0.666748ZM9.00033 15.6667C5.32533 15.6667 2.33366 12.6751 2.33366 9.00008C2.33366 5.32508 5.32533 2.33341 9.00033 2.33341C12.6753 2.33341 15.667 5.32508 15.667 9.00008C15.667 12.6751 12.6753 15.6667 9.00033 15.6667ZM11.992 4.83341L9.00033 7.82508L6.00866 4.83341L4.83366 6.00841L7.82533 9.00008L4.83366 11.9917L6.00866 13.1667L9.00033 10.1751L11.992 13.1667L13.167 11.9917L10.1753 9.00008L13.167 6.00841L11.992 4.83341Z" fill="#B3B3B3"/>
</svg>
