<svg width="42" height="42" viewBox="0 0 42 42" fill="none" xmlns="http://www.w3.org/2000/svg">
<path d="M40 30V16H2V38C2 38.5304 2.21071 39.0391 2.58579 39.4142C2.96086 39.7893 3.46957 40 4 40H21" stroke="#8D8402" stroke-width="4" stroke-linecap="round" stroke-linejoin="round"/>
<path d="M2 7C2 6.46957 2.21071 5.96086 2.58579 5.58579C2.96086 5.21071 3.46957 5 4 5H38C38.5304 5 39.0391 5.21071 39.4142 5.58579C39.7893 5.96086 40 6.46957 40 7V16H2V7Z" stroke="#8D8402" stroke-width="4" stroke-linejoin="round"/>
<path d="M13 2V10M29 2V10" stroke="#8D8402" stroke-width="4" stroke-linecap="round"/>
<path d="M27 36C30.866 36 34 32.866 34 29C34 25.134 30.866 22 27 22C23.134 22 20 25.134 20 29C20 32.866 23.134 36 27 36Z" stroke="#8D8402" stroke-width="4"/>
<path d="M33 34L39 39" stroke="#8D8402" stroke-width="4" stroke-linecap="round" stroke-linejoin="round"/>
</svg>
