<svg width="38" height="40" viewBox="0 0 38 40" fill="none" xmlns="http://www.w3.org/2000/svg">
<path d="M35 24C35.7957 24 36.5587 24.3161 37.1213 24.8787C37.6839 25.4413 38 26.2044 38 27V35C38 36.3261 37.4732 37.5979 36.5355 38.5356C35.5979 39.4732 34.3261 40 33 40H5C3.67392 40 2.40215 39.4732 1.46447 38.5356C0.526784 37.5979 0 36.3261 0 35V27C0 26.2044 0.316071 25.4413 0.87868 24.8787C1.44129 24.3161 2.20435 24 3 24C3.79565 24 4.55871 24.3161 5.12132 24.8787C5.68393 25.4413 6 26.2044 6 27V34H32V27C32 26.2044 32.3161 25.4413 32.8787 24.8787C33.4413 24.3161 34.2043 24 35 24ZM21.474 1.24003L29.606 9.37403C29.8925 9.65077 30.1211 9.9818 30.2783 10.3478C30.4355 10.7138 30.5183 11.1075 30.5218 11.5058C30.5252 11.9042 30.4493 12.2992 30.2985 12.6679C30.1476 13.0366 29.9249 13.3715 29.6432 13.6532C29.3615 13.9349 29.0266 14.1576 28.6579 14.3085C28.2892 14.4593 27.8941 14.5352 27.4958 14.5318C27.0975 14.5283 26.7038 14.4456 26.3378 14.2883C25.9718 14.1311 25.6407 13.9026 25.364 13.616L22 10.252V27C22 27.7957 21.6839 28.5587 21.1213 29.1213C20.5587 29.684 19.7956 30 19 30C18.2044 30 17.4413 29.684 16.8787 29.1213C16.3161 28.5587 16 27.7957 16 27V10.252L12.636 13.616C12.3593 13.9026 12.0282 14.1311 11.6622 14.2883C11.2962 14.4456 10.9025 14.5283 10.5042 14.5318C10.1059 14.5352 9.71083 14.4593 9.34214 14.3085C8.97345 14.1576 8.63849 13.9349 8.35682 13.6532C8.07514 13.3715 7.85238 13.0366 7.70154 12.6679C7.55069 12.2992 7.47479 11.9042 7.47825 11.5058C7.48171 11.1075 7.56447 10.7138 7.7217 10.3478C7.87892 9.9818 8.10747 9.65077 8.394 9.37403L16.526 1.24203C17.1823 0.586183 18.0722 0.217773 19 0.217773C19.9278 0.217773 20.8177 0.586183 21.474 1.24203V1.24003Z" fill="#810204"/>
</svg>
