<svg width="44" height="32" viewBox="0 0 44 32" fill="none" xmlns="http://www.w3.org/2000/svg">
<path d="M28 0C25.8783 0 23.8434 0.842854 22.3431 2.34315C20.8429 3.84344 20 5.87827 20 8C20 10.1217 20.8429 12.1566 22.3431 13.6569C23.8434 15.1571 25.8783 16 28 16C30.1217 16 32.1566 15.1571 33.6569 13.6569C35.1571 12.1566 36 10.1217 36 8C36 5.87827 35.1571 3.84344 33.6569 2.34315C32.1566 0.842854 30.1217 0 28 0ZM28 3.8C28.5516 3.8 29.0977 3.90864 29.6073 4.11971C30.1168 4.33078 30.5798 4.64015 30.9698 5.03015C31.3599 5.42016 31.6692 5.88316 31.8803 6.39273C32.0914 6.9023 32.2 7.44845 32.2 8C32.2 8.55155 32.0914 9.0977 31.8803 9.60727C31.6692 10.1168 31.3599 10.5798 30.9698 10.9698C30.5798 11.3599 30.1168 11.6692 29.6073 11.8803C29.0977 12.0914 28.5516 12.2 28 12.2C27.4484 12.2 26.9023 12.0914 26.3927 11.8803C25.8832 11.6692 25.4202 11.3599 25.0302 10.9698C24.6401 10.5798 24.3308 10.1168 24.1197 9.60727C23.9086 9.0977 23.8 8.55155 23.8 8C23.8 6.88609 24.2425 5.8178 25.0302 5.03015C25.8178 4.2425 26.8861 3.8 28 3.8ZM6 6V12H0V16H6V22H10V16H16V12H10V6H6ZM28 18C22.66 18 12 20.66 12 26V32H44V26C44 20.66 33.34 18 28 18ZM28 21.8C33.94 21.8 40.2 24.72 40.2 26V28.2H15.8V26C15.8 24.72 22 21.8 28 21.8Z" fill="#69029D"/>
</svg>
