<svg width="41" height="41" viewBox="0 0 41 41" fill="none" xmlns="http://www.w3.org/2000/svg">
<path d="M4.66676 4H13.6468L16.5408 11.236L11.8908 14.336C11.6169 14.5187 11.3924 14.7662 11.2372 15.0564C11.0819 15.3467 11.0007 15.6708 11.0008 16C11.0068 16.188 11.0008 16.002 11.0008 16.002V16.044C11.0018 16.1334 11.0058 16.2228 11.0128 16.312C11.0234 16.4773 11.0468 16.6973 11.0828 16.972C11.1608 17.512 11.3108 18.256 11.6028 19.132C12.1908 20.892 13.3428 23.17 15.5868 25.414C17.8308 27.658 20.1088 28.81 21.8668 29.398C22.7448 29.69 23.4868 29.838 24.0308 29.918C24.3376 29.9626 24.6468 29.9893 24.9568 29.998L24.9828 30H24.9988C24.9988 30 25.2228 29.988 25.0008 30C25.3721 29.9998 25.736 29.8962 26.0518 29.7009C26.3676 29.5056 26.6228 29.2262 26.7888 28.894L28.1288 26.214L37.0008 27.694V36.334C32.7788 36.944 21.3748 37.546 12.4148 28.586C3.45476 19.626 4.05476 8.22 4.66676 4ZM15.1468 16.972L18.7608 14.564C19.5242 14.0547 20.0894 13.2984 20.3614 12.4219C20.6334 11.5454 20.5958 10.602 20.2548 9.75L17.3608 2.514C17.0638 1.77181 16.5512 1.13563 15.8892 0.687524C15.2272 0.239418 14.4462 -5.35869e-05 13.6468 8.99444e-09H4.56276C2.74476 8.99444e-09 1.03476 1.262 0.736757 3.234C0.0567567 7.718 -0.865243 20.962 9.58676 31.414C20.0388 41.866 33.2828 40.942 37.7668 40.264C39.7388 39.964 41.0008 38.256 41.0008 36.438V27.694C41.0009 26.7471 40.6651 25.8309 40.0531 25.1084C39.4412 24.3858 38.5927 23.9038 37.6588 23.748L28.7868 22.27C27.9429 22.1292 27.0762 22.2625 26.3138 22.6506C25.5514 23.0386 24.9335 23.6609 24.5508 24.426L23.8588 25.812C23.6142 25.7512 23.372 25.6811 23.1328 25.602C21.8928 25.19 20.1708 24.342 18.4148 22.586C16.6588 20.83 15.8108 19.108 15.3988 17.866C15.3016 17.572 15.2182 17.2737 15.1488 16.972H15.1468Z" fill="#019806"/>
</svg>
