<svg width="48" height="48" viewBox="0 0 48 48" fill="none" xmlns="http://www.w3.org/2000/svg">
<path d="M35.2267 31.0321C38.1316 27.0681 39.4327 22.1535 38.8697 17.2715C38.3066 12.3895 35.921 7.90007 32.19 4.70145C28.4591 1.50282 23.658 -0.169132 18.7472 0.0200875C13.8365 0.209307 9.17829 2.24574 5.70454 5.72198C2.23079 9.19822 0.197692 13.8579 0.0119865 18.7688C-0.173719 23.6796 1.50167 28.4795 4.70296 32.2082C7.90426 35.9368 12.3954 38.3193 17.2778 38.8788C22.1602 39.4384 27.0739 38.1338 31.0357 35.2261H31.0327C31.1207 35.3461 31.2187 35.4611 31.3267 35.5711L42.8767 47.1211C43.4393 47.684 44.2024 48.0004 44.9982 48.0007C45.794 48.0009 46.5573 47.6851 47.1202 47.1226C47.6832 46.56 47.9996 45.7969 47.9998 45.0011C48.0001 44.2053 47.6843 43.442 47.1217 42.8791L35.5717 31.3291C35.4645 31.2204 35.3492 31.1231 35.2267 31.0321ZM36.0007 19.5001C36.0007 21.6669 35.574 23.8125 34.7448 25.8143C33.9156 27.8162 32.7002 29.6352 31.168 31.1673C29.6358 32.6995 27.8169 33.9149 25.815 34.7441C23.8131 35.5733 21.6676 36.0001 19.5007 36.0001C17.3339 36.0001 15.1883 35.5733 13.1865 34.7441C11.1846 33.9149 9.36564 32.6995 7.83348 31.1673C6.30131 29.6352 5.08593 27.8162 4.25673 25.8143C3.42753 23.8125 3.00074 21.6669 3.00074 19.5001C3.00074 15.124 4.73913 10.9271 7.83348 7.8328C10.9278 4.73845 15.1247 3.00006 19.5007 3.00006C23.8768 3.00006 28.0737 4.73845 31.168 7.8328C34.2624 10.9271 36.0007 15.124 36.0007 19.5001Z" fill="#03045E"/>
</svg>
