<svg width="10" height="14" viewBox="0 0 10 14" fill="none" xmlns="http://www.w3.org/2000/svg">
<path d="M4.99998 3.33331C5.44201 3.33331 5.86593 3.50891 6.17849 3.82147C6.49105 4.13403 6.66665 4.55795 6.66665 4.99998C6.66665 5.21885 6.62354 5.43558 6.53978 5.63779C6.45602 5.83999 6.33325 6.02373 6.17849 6.17849C6.02373 6.33325 5.83999 6.45602 5.63779 6.53978C5.43558 6.62354 5.21885 6.66665 4.99998 6.66665C4.55795 6.66665 4.13403 6.49105 3.82147 6.17849C3.50891 5.86593 3.33331 5.44201 3.33331 4.99998C3.33331 4.55795 3.50891 4.13403 3.82147 3.82147C4.13403 3.50891 4.55795 3.33331 4.99998 3.33331ZM4.99998 0.333313C6.23766 0.333313 7.42464 0.824978 8.29981 1.70015C9.17498 2.57532 9.66665 3.7623 9.66665 4.99998C9.66665 8.49998 4.99998 13.6666 4.99998 13.6666C4.99998 13.6666 0.333313 8.49998 0.333313 4.99998C0.333313 3.7623 0.824978 2.57532 1.70015 1.70015C2.57532 0.824978 3.7623 0.333313 4.99998 0.333313ZM4.99998 1.66665C4.11592 1.66665 3.26808 2.01784 2.64296 2.64296C2.01784 3.26808 1.66665 4.11592 1.66665 4.99998C1.66665 5.66665 1.66665 6.99998 4.99998 11.4733C8.33331 6.99998 8.33331 5.66665 8.33331 4.99998C8.33331 4.11592 7.98212 3.26808 7.357 2.64296C6.73188 2.01784 5.88403 1.66665 4.99998 1.66665Z" fill="#B3B3B3"/>
</svg>
