<svg width="418" height="325" viewBox="0 0 418 325" fill="none" xmlns="http://www.w3.org/2000/svg">
<path d="M61.2223 295.734C142.836 334.755 275.163 334.755 356.786 295.734C438.409 256.713 438.4 193.452 356.786 154.43C275.173 115.409 142.836 115.4 61.2126 154.43C-20.4107 193.46 -20.4009 256.713 61.2223 295.734Z" fill="#FAFAFA"/>
<path d="M209.757 302.902C226.257 302.902 239.633 297.067 239.633 289.868C239.633 282.67 226.257 276.834 209.757 276.834C193.256 276.834 179.88 282.67 179.88 289.868C179.88 297.067 193.256 302.902 209.757 302.902Z" fill="#F0F0F0"/>
<path d="M161.677 64.4775V109.32C161.677 110.791 162.807 111.397 164.209 110.658L277.969 50.5433C278.706 50.103 279.318 49.5105 279.758 48.8137C280.198 48.1168 280.453 47.3351 280.502 46.5315V1.65312C280.502 0.182132 279.362 -0.424092 277.969 0.315858L164.209 60.4301C163.466 60.8723 162.849 61.47 162.409 62.1738C161.968 62.8776 161.717 63.6673 161.677 64.4775Z" fill="#F0F0F0"/>
<path d="M169.596 63.7732L203.691 45.7648C205.26 44.9357 206.516 45.6043 206.516 47.2536V78.6078C206.463 79.502 206.179 80.372 205.688 81.1467C205.197 81.9214 204.513 82.5788 203.691 83.0653L169.596 101.083C168.038 101.903 166.771 101.234 166.771 99.5849V68.2485C166.824 67.3517 167.108 66.479 167.598 65.7013C168.089 64.9236 168.774 64.263 169.596 63.7732Z" fill="#FAFAFA"/>
<path d="M197.204 61.4106L187.063 80.6492L181.9 77.9212C181.404 77.6731 180.822 77.6106 180.277 77.747C179.732 77.8833 179.266 78.2078 178.977 78.6523L166.771 97.9177V99.6026C166.771 101.252 168.038 101.921 169.596 101.1L203.691 83.0831C204.511 82.595 205.194 81.9371 205.685 81.1628C206.176 80.3884 206.461 79.5193 206.516 78.6255V67.5976L199.697 61.054C199.545 60.8591 199.337 60.7067 199.095 60.614C198.854 60.5212 198.589 60.4917 198.33 60.5287C198.072 60.5657 197.829 60.6677 197.63 60.8234C197.431 60.9792 197.284 61.1824 197.204 61.4106Z" fill="#03045E" fill-opacity="0.2"/>
<path d="M171.895 75.2467C174.002 73.9892 175.755 72.295 177.013 70.3016C178.27 68.3081 178.997 66.0715 179.133 63.773C179.133 61.8385 178.451 60.4388 177.331 59.6899L169.596 63.773C168.776 64.2611 168.093 64.9189 167.603 65.6933C167.112 66.4677 166.827 67.3368 166.771 68.2306V75.6925C168.106 76.4057 169.898 76.2987 171.895 75.2467Z" fill="#03045E" fill-opacity="0.2"/>
<path d="M219.239 40.4777L270.469 13.4027C271.638 12.7875 272.583 13.2244 272.583 14.3833C272.531 15.0328 272.313 15.662 271.946 16.2197C271.578 16.7774 271.072 17.2478 270.469 17.5927L219.239 44.6589C218.07 45.274 217.125 44.8372 217.125 43.6782C217.178 43.0303 217.397 42.4029 217.764 41.8468C218.131 41.2908 218.636 40.8218 219.239 40.4777Z" fill="#FAFAFA"/>
<path d="M219.239 49.7409L270.469 22.6659C271.638 22.0507 272.583 22.4875 272.583 23.6465C272.531 24.296 272.313 24.9252 271.946 25.4828C271.578 26.0405 271.072 26.511 270.469 26.8559L219.239 53.922C218.07 54.5372 217.125 54.1003 217.125 52.9503C217.176 52.3008 217.394 51.6716 217.762 51.114C218.129 50.5563 218.635 50.0858 219.239 49.7409Z" fill="#FAFAFA"/>
<path d="M219.239 59.0037L270.469 31.9376C271.638 31.3225 272.583 31.7593 272.583 32.9093C272.531 33.5588 272.313 34.188 271.946 34.7457C271.578 35.3034 271.072 35.7738 270.469 36.1188L219.239 63.1849C218.07 63.8089 217.125 63.3721 217.125 62.2131C217.176 61.5637 217.394 60.9345 217.762 60.3768C218.129 59.8191 218.635 59.3486 219.239 59.0037Z" fill="#FAFAFA"/>
<path d="M219.239 68.2666L270.469 41.2005C271.638 40.5854 272.583 41.0222 272.583 42.1812C272.53 42.8291 272.311 43.4565 271.943 44.0125C271.576 44.5686 271.071 45.0376 270.469 45.3817L219.239 72.5013C218.07 73.1164 217.125 72.6796 217.125 71.5206C217.169 70.8634 217.383 70.2253 217.751 69.6593C218.119 69.0934 218.629 68.6159 219.239 68.2666Z" fill="#FAFAFA"/>
<path d="M137.908 205.567V139.765C137.955 138.961 138.208 138.178 138.649 137.481C139.089 136.784 139.703 136.192 140.44 135.753L226.477 90.2865C227.87 89.5465 229.009 90.1438 229.009 91.6237V157.426C228.96 158.229 228.705 159.011 228.265 159.708C227.826 160.405 227.213 160.997 226.477 161.438L140.44 206.904C139.038 207.644 137.908 207.047 137.908 205.567Z" fill="#F0F0F0"/>
<path d="M137.908 202.277V205.567C137.908 207.047 139.038 207.644 140.44 206.904L226.477 161.437C227.213 160.997 227.826 160.405 228.265 159.708C228.705 159.011 228.96 158.229 229.009 157.426V154.127L137.908 202.277Z" fill="#03045E" fill-opacity="0.2"/>
<path d="M179.533 142.6L188.3 142.181C189.371 142.128 189.664 142.681 188.953 143.429L178.88 153.914C178.169 154.653 177.594 154.448 177.594 153.468V144.481C177.598 144.002 177.8 143.541 178.159 143.192C178.519 142.843 179.01 142.632 179.533 142.6Z" fill="#03045E" fill-opacity="0.2"/>
<path d="M177.273 159.664C176.222 159.676 175.187 159.433 174.272 158.96C172.11 157.809 170.921 155.393 170.921 152.238C170.921 145.801 175.88 137.973 181.978 134.719C184.988 133.124 187.823 132.883 190.005 134.024C192.187 135.165 193.365 137.59 193.365 140.737C193.365 147.183 188.397 155.001 182.309 158.255C180.794 159.119 179.057 159.605 177.273 159.664ZM187.014 133.926C185.349 133.986 183.73 134.444 182.319 135.254C176.406 138.375 171.603 145.997 171.603 152.238C171.603 155.197 172.675 157.399 174.623 158.425C176.571 159.45 179.182 159.209 181.978 157.729C187.891 154.6 192.693 147.031 192.693 140.737C192.693 137.777 191.622 135.584 189.673 134.55C188.858 134.133 187.938 133.918 187.004 133.926H187.014Z" fill="#03045E" fill-opacity="0.2"/>
<path d="M222.232 78.617L216.903 75.8177C214.361 74.2576 210.824 74.32 206.918 76.3883C199.125 80.4892 192.871 90.893 192.871 99.6298V101.618C192.871 110.355 205.71 119.84 205.71 119.84L210.951 122.559C210.951 122.559 207.805 119.27 208.165 118.592C211.643 112.138 220.946 93.8974 220.946 86.7654V84.7773C220.965 83.3385 220.765 81.9041 220.351 80.5159L220.946 80.828L222.232 78.617ZM206.908 98.6492C203.012 100.7 199.885 99.0325 199.885 94.9405C201.969 94.6374 207.22 86.4355 206.908 83.8056C210.805 81.7551 213.922 83.4222 213.932 87.5142C213.8 89.7448 213.095 91.9155 211.875 93.8502C210.654 95.7849 208.953 97.429 206.908 98.6492Z" fill="#03045E" fill-opacity="0.2"/>
<g opacity="0.2">
<path d="M222.232 78.617L216.903 75.8177C214.361 74.2576 210.824 74.32 206.918 76.3883C199.125 80.4892 192.871 90.893 192.871 99.6298V101.618C192.871 110.355 205.71 119.84 205.71 119.84L210.951 122.559C210.951 122.559 207.805 119.27 208.165 118.592C211.643 112.138 220.946 93.8974 220.946 86.7654V84.7773C220.965 83.3385 220.765 81.9041 220.351 80.5159L220.946 80.828L222.232 78.617ZM206.908 98.6492C203.012 100.7 199.885 99.0325 199.885 94.9405C201.969 94.6374 207.22 86.4355 206.908 83.8056C210.805 81.7551 213.922 83.4222 213.932 87.5142C213.8 89.7448 213.095 91.9155 211.875 93.8502C210.654 95.7849 208.953 97.429 206.908 98.6492Z" fill="black"/>
</g>
<path d="M222.232 78.6167C222.173 78.5788 222.111 78.546 222.047 78.5186C219.543 77.2349 216.202 77.4132 212.519 79.3566C206.967 82.2986 202.164 88.4589 199.856 94.9402C198.963 97.406 198.49 99.9829 198.453 102.58V104.595C198.453 111.326 206.782 119.136 210.61 122.372C210.693 122.44 210.781 122.502 210.873 122.559C211.098 122.685 211.35 122.767 211.611 122.799C211.873 122.83 212.139 122.812 212.393 122.744C212.646 122.676 212.881 122.56 213.082 122.404C213.284 122.247 213.447 122.054 213.562 121.837C216.874 115.596 226.508 96.9817 226.508 89.7427V87.7546C226.567 83.2614 224.901 80.0877 222.232 78.6167ZM205.623 99.1927C205.542 98.7688 205.503 98.3391 205.506 97.9089C205.634 95.6774 206.337 93.5051 207.555 91.5688C208.774 89.6324 210.475 87.9866 212.519 86.7651C212.928 86.5497 213.355 86.3649 213.796 86.2123C217.069 85.1247 219.543 86.8453 219.543 90.4737C219.412 92.7033 218.707 94.873 217.487 96.8063C216.266 98.7397 214.564 100.382 212.519 101.6C209.081 103.436 206.217 102.331 205.623 99.1927Z" fill="#03045E" fill-opacity="0.2"/>
<path d="M219.543 90.4831C219.412 92.7127 218.707 94.8824 217.487 96.8157C216.266 98.7491 214.564 100.391 212.519 101.609C209.081 103.392 206.217 102.331 205.623 99.1931C206.069 99.0493 206.499 98.8673 206.908 98.6493C208.952 97.4287 210.652 95.7842 211.87 93.8495C213.089 91.9148 213.792 89.7444 213.922 87.5144C213.927 87.0807 213.884 86.6477 213.796 86.2217C217.069 85.1341 219.543 86.8547 219.543 90.4831Z" fill="#03045E" fill-opacity="0.2"/>
<g opacity="0.2">
<path d="M219.543 90.4831C219.412 92.7127 218.707 94.8824 217.487 96.8157C216.266 98.7491 214.564 100.391 212.519 101.609C209.081 103.392 206.217 102.331 205.623 99.1931C206.069 99.0493 206.499 98.8673 206.908 98.6493C208.952 97.4287 210.652 95.7842 211.87 93.8495C213.089 91.9148 213.792 89.7444 213.922 87.5144C213.927 87.0807 213.884 86.6477 213.796 86.2217C217.069 85.1341 219.543 86.8547 219.543 90.4831Z" fill="black"/>
</g>
<path d="M232.527 201.172C232.527 201.172 236.044 180.667 228.231 163.033C220.419 145.399 209.888 144.312 204.433 146.817C198.978 149.322 202.485 159.102 207.355 165.672C213.843 174.293 224.559 192.854 224.208 209.525L232.527 201.172Z" fill="#03045E" fill-opacity="0.2"/>
<path opacity="0.2" d="M232.527 201.172C232.527 201.172 236.044 180.667 228.231 163.033C220.419 145.399 209.888 144.312 204.433 146.817C198.978 149.322 202.485 159.102 207.355 165.672C213.843 174.293 224.559 192.854 224.208 209.525L232.527 201.172Z" fill="black"/>
<path d="M229.02 202.473C228.933 202.471 228.847 202.453 228.767 202.42C228.688 202.386 228.616 202.339 228.557 202.28C228.498 202.221 228.453 202.151 228.423 202.076C228.394 202 228.382 201.92 228.387 201.84C229.673 173.767 214.35 152.808 207.735 148.724C207.663 148.68 207.601 148.623 207.553 148.557C207.505 148.49 207.471 148.416 207.455 148.337C207.438 148.259 207.438 148.179 207.455 148.101C207.473 148.022 207.507 147.948 207.555 147.882C207.604 147.816 207.666 147.759 207.739 147.715C207.811 147.671 207.893 147.64 207.978 147.625C208.064 147.61 208.152 147.61 208.237 147.626C208.322 147.642 208.403 147.673 208.476 147.717C216.269 152.478 230.998 173.91 229.702 201.894C229.7 201.973 229.68 202.051 229.644 202.123C229.609 202.195 229.557 202.26 229.494 202.314C229.43 202.368 229.356 202.41 229.275 202.437C229.193 202.465 229.107 202.477 229.02 202.473Z" fill="white"/>
<path d="M231.144 225.519C229.809 222.453 226.361 219.029 217.506 215.374C208.651 211.719 201.988 206.842 200.761 203.312C200.391 202.337 200.343 201.284 200.622 200.284C200.901 199.284 201.494 198.381 202.329 197.687C202.329 197.687 193.981 196.795 192.929 192.115C191.613 186.213 198.91 185.83 198.91 185.83C198.91 185.83 189.334 173.491 186.791 167.999C184.249 162.508 187.181 162.178 193.357 164.273C199.533 166.368 211.301 176.915 213.122 180.133C213.122 180.133 216.308 176.567 219.737 178.911C223.166 181.256 223.331 188.272 221.305 190.804C222.672 190.571 224.083 190.706 225.367 191.192C226.652 191.677 227.755 192.493 228.543 193.541C232.031 197.722 233.18 208.18 233.18 208.18L231.144 225.519Z" fill="#03045E" fill-opacity="0.2"/>
<path d="M231.767 222.666C231.619 222.664 231.476 222.618 231.36 222.534C231.244 222.45 231.161 222.334 231.124 222.203C226.39 204.15 203.917 175.336 189.957 166.171C189.886 166.125 189.826 166.067 189.78 165.999C189.733 165.931 189.702 165.856 189.688 165.778C189.673 165.699 189.676 165.618 189.695 165.541C189.715 165.463 189.751 165.389 189.801 165.324C189.852 165.26 189.916 165.204 189.99 165.162C190.064 165.12 190.146 165.091 190.232 165.078C190.318 165.065 190.406 165.067 190.491 165.085C190.576 165.103 190.656 165.136 190.727 165.182C204.862 174.462 227.618 203.641 232.42 221.917C232.458 222.074 232.428 222.239 232.335 222.376C232.242 222.512 232.094 222.61 231.923 222.648L231.767 222.666Z" fill="white"/>
<path d="M294.874 40.8798C294.758 40.8786 294.644 40.851 294.543 40.7996L291.805 39.3464C291.73 39.3066 291.664 39.2536 291.61 39.1904C291.557 39.1272 291.518 39.055 291.496 38.978C291.473 38.9011 291.467 38.8207 291.479 38.7417C291.49 38.6626 291.518 38.5864 291.562 38.5173C291.605 38.4483 291.663 38.3877 291.732 38.3391C291.801 38.2905 291.88 38.2549 291.964 38.2342C292.048 38.2135 292.136 38.2082 292.222 38.2185C292.309 38.2289 292.392 38.2547 292.468 38.2945L295.205 39.7476C295.28 39.7873 295.347 39.8403 295.4 39.9035C295.453 39.9667 295.492 40.0389 295.515 40.1159C295.537 40.1929 295.543 40.2733 295.532 40.3524C295.52 40.4314 295.492 40.5077 295.448 40.5767C295.39 40.669 295.306 40.7456 295.206 40.7989C295.105 40.8521 294.99 40.88 294.874 40.8798Z" fill="white"/>
<path d="M117.921 93.7371V226.375C117.921 227.855 119.051 228.453 120.444 227.713L289.497 138.393C290.233 137.952 290.845 137.36 291.285 136.663C291.725 135.966 291.98 135.184 292.029 134.381V1.74261C292.029 0.262709 290.89 -0.3346 289.497 0.40535L120.444 89.7253C119.709 90.1655 119.097 90.7582 118.659 91.4552C118.22 92.1522 117.968 92.934 117.921 93.7371Z" fill="#B3B3B3"/>
<path d="M137.706 118.236C137.706 122.862 141.476 124.61 146.142 122.149L280.155 51.3369V34.6123L146.142 105.416C141.476 107.885 137.706 113.618 137.706 118.236Z" fill="#F1F2F6"/>
<path d="M291.552 28.6127C296.208 26.1521 299.988 27.8995 299.988 32.5175C299.988 37.1355 296.208 42.8767 291.552 45.3373L280.203 51.3371V34.6125L291.552 28.6127Z" fill="#03045E" fill-opacity="0.2"/>
<path d="M287.46 42.7068C286.975 42.7131 286.497 42.5991 286.077 42.3769C285.56 42.0599 285.145 41.6209 284.878 41.1062C284.61 40.5915 284.5 40.0202 284.558 39.4528C284.628 38.0574 285.062 36.6978 285.825 35.4878C286.588 34.2779 287.656 33.253 288.941 32.499C289.432 32.1329 290.032 31.9121 290.664 31.866C291.295 31.8199 291.926 31.9507 292.474 32.2411C293.022 32.5314 293.46 32.9675 293.73 33.4913C294 34.0152 294.09 34.6019 293.987 35.1735C293.915 36.5684 293.479 37.9272 292.717 39.1368C291.954 40.3464 290.887 41.3717 289.604 42.1273C288.957 42.4889 288.218 42.6888 287.46 42.7068ZM291.075 33.1231C290.552 33.1467 290.045 33.2942 289.604 33.551C288.528 34.2051 287.632 35.0784 286.986 36.1023C286.341 37.1262 285.963 38.2729 285.882 39.4528C285.782 39.8078 285.811 40.1832 285.966 40.5214C286.122 40.8596 286.393 41.1419 286.741 41.3251C287.088 41.5083 287.491 41.5821 287.889 41.5354C288.286 41.4887 288.656 41.3239 288.941 41.0664C290.018 40.4133 290.915 39.5403 291.561 38.5162C292.206 37.4921 292.583 36.3448 292.662 35.1646C292.712 34.8111 292.659 34.4518 292.509 34.1231C292.358 33.7943 292.116 33.5078 291.805 33.2925C291.583 33.1761 291.33 33.1175 291.075 33.1231Z" fill="white"/>
<path d="M293.5 65.2174L163.94 133.632C163.201 134.069 162.586 134.661 162.146 135.358C161.705 136.056 161.452 136.839 161.407 137.643V174.133C161.407 175.613 162.537 176.21 163.94 175.47L293.5 107.029C294.238 106.59 294.852 105.998 295.292 105.301C295.732 104.604 295.986 103.821 296.033 103.017V66.5546C295.984 65.0747 294.854 64.4774 293.5 65.2174Z" fill="#03045E" fill-opacity="0.2"/>
<path opacity="0.2" d="M293.5 65.2174L163.94 133.632C163.201 134.069 162.586 134.661 162.146 135.358C161.705 136.056 161.452 136.839 161.407 137.643V174.133C161.407 175.613 162.537 176.21 163.94 175.47L293.5 107.029C294.238 106.59 294.852 105.998 295.292 105.301C295.732 104.604 295.986 103.821 296.033 103.017V66.5546C295.984 65.0747 294.854 64.4774 293.5 65.2174Z" fill="white"/>
<path d="M211.039 114.83L234.516 102.42C235.685 101.805 236.63 102.242 236.63 103.401C236.577 104.049 236.358 104.676 235.991 105.232C235.623 105.788 235.118 106.257 234.516 106.601L211.039 119.011C209.87 119.626 208.925 119.189 208.925 118.031C208.978 117.383 209.197 116.755 209.564 116.199C209.932 115.643 210.437 115.174 211.039 114.83Z" fill="white"/>
<path d="M208.925 126.393C208.925 127.552 209.899 127.988 211.039 127.373L282.005 89.8766C282.607 89.5301 283.11 89.0591 283.476 88.5016C283.841 87.944 284.058 87.3156 284.109 86.6671C284.109 85.5171 283.135 85.0803 282.005 85.6954L211.039 123.192C210.437 123.536 209.932 124.005 209.564 124.561C209.197 125.117 208.978 125.745 208.925 126.393Z" fill="white"/>
<path d="M208.925 134.754C208.925 135.913 209.899 136.35 211.039 135.735L282.005 98.2384C282.607 97.8919 283.11 97.4209 283.476 96.8634C283.841 96.3059 284.058 95.6775 284.109 95.029C284.109 93.8789 283.135 93.4421 282.005 94.0572L211.039 131.554C210.437 131.898 209.932 132.367 209.564 132.923C209.197 133.479 208.978 134.107 208.925 134.754Z" fill="white"/>
<path d="M208.925 143.117C208.925 144.276 209.899 144.713 211.039 144.098L282.005 106.601C282.607 106.255 283.11 105.784 283.476 105.226C283.841 104.669 284.058 104.04 284.109 103.392C284.109 102.242 283.135 101.805 282.005 102.42L211.039 139.917C210.437 140.261 209.932 140.73 209.564 141.286C209.197 141.842 208.978 142.469 208.925 143.117Z" fill="white"/>
<path d="M167.934 135.718L198.483 119.573C199.885 118.842 201.015 119.439 201.015 120.91V149.019C200.968 149.823 200.714 150.605 200.273 151.302C199.833 151.999 199.22 152.592 198.483 153.031L167.934 169.167C166.541 169.907 165.401 169.31 165.401 167.839V139.73C165.448 138.926 165.701 138.143 166.142 137.446C166.582 136.749 167.196 136.157 167.934 135.718Z" fill="white"/>
<path d="M192.677 133.605L183.588 150.846L178.961 148.404C178.514 148.168 177.983 148.104 177.484 148.226C176.985 148.348 176.56 148.646 176.301 149.054L165.401 166.323V167.83C165.401 169.31 166.541 169.907 167.934 169.167L198.483 153.031C199.22 152.592 199.834 152 200.275 151.303C200.715 150.605 200.969 149.823 201.015 149.019V139.15L194.869 133.284C194.729 133.12 194.544 132.993 194.333 132.917C194.122 132.841 193.893 132.818 193.669 132.851C193.445 132.884 193.235 132.971 193.06 133.104C192.886 133.236 192.753 133.409 192.677 133.605Z" fill="#03045E" fill-opacity="0.2"/>
<path d="M169.989 146.006C171.878 144.878 173.449 143.359 174.577 141.571C175.704 139.784 176.355 137.779 176.477 135.718C176.542 135.034 176.429 134.345 176.148 133.708C175.867 133.072 175.425 132.505 174.86 132.054L167.934 135.718C167.196 136.156 166.582 136.749 166.142 137.446C165.701 138.143 165.448 138.926 165.401 139.73V146.416C166.579 147.04 168.197 146.951 169.989 146.006Z" fill="#03045E" fill-opacity="0.2"/>
<path d="M293.5 119.572L163.94 187.986C163.202 188.425 162.588 189.017 162.148 189.714C161.708 190.412 161.454 191.194 161.407 191.998V228.514C161.407 229.985 162.537 230.582 163.94 229.851L293.5 161.393C294.238 160.954 294.852 160.362 295.292 159.665C295.732 158.968 295.986 158.185 296.033 157.381V120.909C295.984 119.438 294.854 118.859 293.5 119.572Z" fill="#03045E" fill-opacity="0.2"/>
<path opacity="0.2" d="M293.5 119.572L163.94 187.986C163.202 188.425 162.588 189.017 162.148 189.714C161.708 190.412 161.454 191.194 161.407 191.998V228.514C161.407 229.985 162.537 230.582 163.94 229.851L293.5 161.393C294.238 160.954 294.852 160.362 295.292 159.665C295.732 158.968 295.986 158.185 296.033 157.381V120.909C295.984 119.438 294.854 118.859 293.5 119.572Z" fill="white"/>
<path d="M211.039 169.185L234.516 156.784C235.685 156.169 236.63 156.605 236.63 157.756C236.578 158.405 236.36 159.034 235.993 159.592C235.625 160.15 235.119 160.62 234.516 160.965L211.039 173.366C209.87 173.981 208.925 173.544 208.925 172.394C208.977 171.745 209.195 171.115 209.562 170.558C209.93 170 210.436 169.53 211.039 169.185Z" fill="white"/>
<path d="M208.925 180.757C208.925 181.907 209.899 182.344 211.039 181.728L282.005 144.232C282.605 143.886 283.108 143.417 283.474 142.861C283.839 142.305 284.057 141.678 284.109 141.031C284.109 139.872 283.135 139.435 282.005 140.051L211.039 177.547C210.436 177.892 209.93 178.363 209.562 178.92C209.195 179.478 208.977 180.107 208.925 180.757Z" fill="white"/>
<path d="M208.925 189.119C208.925 190.269 209.899 190.705 211.039 190.09L282.005 152.594C282.605 152.248 283.108 151.778 283.474 151.223C283.839 150.667 284.057 150.04 284.109 149.393C284.109 148.234 283.135 147.797 282.005 148.412L211.039 185.909C210.436 186.254 209.93 186.725 209.562 187.282C209.195 187.84 208.977 188.469 208.925 189.119Z" fill="white"/>
<path d="M208.925 197.481C208.925 198.631 209.899 199.068 211.039 198.453L282.005 160.956C282.605 160.611 283.108 160.141 283.474 159.585C283.839 159.029 284.057 158.403 284.109 157.756C284.109 156.597 283.135 156.16 282.005 156.775L211.039 194.272C210.436 194.617 209.93 195.087 209.562 195.645C209.195 196.203 208.977 196.832 208.925 197.481Z" fill="white"/>
<path d="M167.934 190.081L198.483 173.936C199.885 173.196 201.015 173.793 201.015 175.273V203.374C200.97 204.178 200.717 204.961 200.277 205.659C199.836 206.356 199.221 206.948 198.483 207.385L167.934 223.531C166.541 224.271 165.401 223.673 165.401 222.193V194.093C165.448 193.289 165.701 192.506 166.142 191.809C166.582 191.112 167.196 190.52 167.934 190.081Z" fill="white"/>
<path d="M192.677 187.969L183.588 205.211L178.961 202.759C178.739 202.642 178.494 202.567 178.24 202.537C177.986 202.507 177.729 202.523 177.482 202.585C177.235 202.646 177.003 202.751 176.801 202.894C176.598 203.037 176.429 203.215 176.301 203.419L165.401 220.687V222.194C165.401 223.674 166.541 224.271 167.934 223.531L198.483 207.386C199.22 206.949 199.834 206.359 200.274 205.663C200.715 204.967 200.969 204.186 201.015 203.383V193.505L194.869 187.648C194.731 187.481 194.547 187.352 194.335 187.274C194.123 187.196 193.892 187.172 193.667 187.205C193.442 187.238 193.231 187.327 193.056 187.461C192.882 187.596 192.751 187.771 192.677 187.969Z" fill="#03045E" fill-opacity="0.2"/>
<path d="M169.989 200.361C171.877 199.235 173.449 197.717 174.576 195.931C175.704 194.145 176.355 192.141 176.477 190.082C176.542 189.397 176.429 188.709 176.148 188.072C175.867 187.435 175.425 186.869 174.86 186.417L167.934 190.082C167.196 190.52 166.582 191.112 166.142 191.81C165.701 192.507 165.448 193.289 165.401 194.093V200.78C166.579 201.395 168.197 201.306 169.989 200.361Z" fill="#03045E" fill-opacity="0.2"/>
<path d="M292.029 7.4215V1.74261C292.029 0.262709 290.89 -0.3346 289.497 0.40535L120.454 89.7253C119.716 90.164 119.102 90.7561 118.662 91.4533C118.222 92.1505 117.968 92.933 117.921 93.7371V99.4249L292.029 7.4215Z" fill="#03045E" fill-opacity="0.2"/>
<path d="M271.29 12.2C270.745 12.5275 270.292 12.9676 269.967 13.4848C269.642 14.002 269.455 14.5819 269.42 15.1776C269.42 16.2742 270.257 16.7199 271.29 16.1672C271.838 15.8442 272.294 15.4066 272.621 14.8904C272.948 14.3742 273.136 13.7943 273.17 13.1985C273.17 12.1019 272.332 11.6562 271.29 12.2Z" fill="#F1F2F6"/>
<path d="M278.742 8.31268C278.195 8.63917 277.74 9.07884 277.414 9.59612C277.087 10.1134 276.898 10.6938 276.862 11.2903C276.862 12.3869 277.709 12.8237 278.742 12.2799C279.29 11.955 279.747 11.5157 280.073 10.9981C280.4 10.4804 280.588 9.89927 280.622 9.30225C280.622 8.16112 279.784 7.72429 278.742 8.31268Z" fill="#F1F2F6"/>
<path d="M286.194 4.33608C285.646 4.65904 285.19 5.09667 284.863 5.61285C284.536 6.12904 284.348 6.70898 284.314 7.30479C284.314 8.40135 285.152 8.8471 286.194 8.30328C286.739 7.9758 287.192 7.5357 287.517 7.01848C287.842 6.50125 288.03 5.92139 288.065 5.32565C288.065 4.2291 287.227 3.78335 286.194 4.33608Z" fill="#F1F2F6"/>
<path d="M243.155 283.984C243.45 284.669 243.653 285.385 243.759 286.115C244.034 286.87 244.097 287.676 243.944 288.46C243.288 289.46 242.245 290.198 241.022 290.528C240.152 290.711 239.249 290.727 238.372 290.573C237.495 290.42 236.662 290.101 235.927 289.636C234.145 288.665 232.81 287.479 230.277 286.828C228.471 286.472 226.77 285.763 225.29 284.751C223.887 283.726 222.016 280.873 224.695 280.213C227.374 279.553 233.209 281.88 238.518 282.094L243.155 283.984Z" fill="#060606"/>
<path d="M242.902 280.774C242.902 280.774 243.214 284.18 243.214 284.599C243.214 285.749 238.577 287.273 237.72 284.599L236.979 280.979L242.902 280.774Z" fill="#F28F8F"/>
<path d="M237.213 206.058C238.808 208.203 240.268 210.429 241.587 212.726C241.587 212.726 242.045 217.683 242.045 220.981C242.045 227.044 241.022 231.724 240.097 243.67C241.603 246.02 242.466 248.669 242.61 251.391C243 256.802 243.009 256.74 243.048 281.702C242.161 282.14 241.187 282.411 240.183 282.5C239.179 282.589 238.166 282.493 237.203 282.219L228.436 247.263L227.462 233.543L224.715 216.488L237.213 206.058Z" fill="#37474F"/>
<path d="M216.464 290.234C216.776 290.528 216.668 291.125 216.815 292.106C216.976 292.86 217.019 293.632 216.941 294.397C216.43 295.457 215.506 296.305 214.35 296.777C213.509 297.055 212.615 297.17 211.723 297.116C210.831 297.063 209.961 296.841 209.168 296.465C207.278 295.698 205.787 294.682 203.186 294.317C201.346 294.172 199.561 293.664 197.955 292.828C196.426 291.936 194.176 289.351 196.747 288.37C199.319 287.39 205.768 289.146 211.057 288.754L216.464 290.234Z" fill="#060606"/>
<path d="M217.682 285.954C217.682 285.954 216.708 289.841 216.445 290.706C215.86 292.783 210.824 292.89 210.824 290.492L211.165 284.965L217.682 285.954Z" fill="#F28F8F"/>
<path d="M225.845 207.119C228.368 211.656 230.803 215.659 230.881 220.491C231.066 230.717 226.429 241.977 224.725 249.367C225.233 252.042 225.377 254.764 225.153 257.471C224.812 260.564 217.107 288.674 217.107 288.674C217.107 288.674 212.821 289.494 210.999 287.72L213.162 233.596L213.746 217.879L225.845 207.119Z" fill="#37474F"/>
<path d="M222.377 179.402L223.965 187.452L231.914 186.917L230.248 177.797L222.377 179.402Z" fill="#F1F2F6"/>
<path d="M240.301 186.328C239.512 184.144 236.483 181.764 233.482 182.281C228.976 182.982 224.534 183.995 220.195 185.312C217.419 186.204 214.886 188.424 214.652 196.786L213.785 217.825C214.986 218.802 216.426 219.499 217.984 219.858C222.202 220.919 224.988 221.552 231.398 220.268C239.746 218.601 241.733 213.974 241.733 213.974C241.733 213.974 241.412 202.839 241.158 196.786C240.954 191.642 240.837 187.835 240.301 186.328Z" fill="#B3B3B3"/>
<path d="M218.987 169.123L178.511 159.075C174.849 158.496 173.319 166.68 176.982 167.25L218.548 171.093L218.987 169.123Z" fill="#060606"/>
<path d="M207.346 186.096L199.075 186.328C199.075 186.328 200.322 175.068 201.092 173.589C201.861 172.109 203.703 171.806 205.534 171.333C207.365 170.861 207.356 170.058 207.356 170.058L205.709 169.907C204.268 169.773 203.693 168.124 204.316 167.009C204.618 166.492 205.105 165.672 205.982 165.895L208.164 166.439C208.198 165.558 207.958 164.686 207.473 163.925C206.742 163.185 206.255 163.416 204.794 162.953C203.712 162.605 201.501 161.99 199.718 162.659C197.936 163.327 196.582 166.394 196.124 168.56C195.661 171.066 194.91 173.519 193.883 175.88C192.295 179.892 189.987 188.129 189.743 191.428C189.636 192.952 189.792 193.861 191.643 194.263C193.494 194.664 207.112 194.691 207.112 194.691L207.346 186.096Z" fill="#F1F2F6"/>
<path d="M216.493 169.871C216.493 169.871 214.545 172.474 214.818 172.76C215.258 173.028 215.745 173.224 216.259 173.339L216.493 169.871Z" fill="#F1F2F6"/>
<path d="M222.367 161.651C220.516 162.543 217.321 164.085 216.435 170.29C215.529 176.655 216.727 178.706 217.662 179.553C218.305 180.123 221.753 180.159 223.507 179.678C225.669 179.089 230.55 177.386 232.781 174.115C235.401 170.263 235.986 165.11 233.034 163.06C231.532 162.017 229.765 161.341 227.899 161.095C226.034 160.848 224.13 161.04 222.367 161.651Z" fill="#F1F2F6"/>
<path d="M227.812 238.473L232.031 227.561C235.3 226.5 238.23 224.711 240.554 222.354C240.554 222.354 239.58 225.466 232.917 228.657L228.29 238.981V244.722L227.812 238.473Z" fill="#060606"/>
<path d="M216.055 163.747C216.659 165.271 217.682 169.016 221.948 170.576C221.948 170.576 222.562 168.195 224.744 168.445C226.926 168.695 227.306 171.253 225.962 172.84C224.617 174.427 223.312 173.857 223.312 173.857C223.312 173.857 223.02 177.271 225.514 178.822C226.442 179.323 227.485 179.62 228.56 179.69C229.635 179.759 230.713 179.6 231.709 179.223C233.141 178.626 235.177 175.479 236.366 172.894C238.879 167.438 239.239 163.087 235.391 161.679C234.914 159.2 233.696 158.264 231.242 157.801C225.962 156.811 221.968 159.985 217.535 159.423C215.266 159.129 215.353 162 216.055 163.747Z" fill="#060606"/>
<path d="M235.518 162.543L238.012 161.126C237.795 160.848 237.47 160.656 237.103 160.589C236.737 160.522 236.357 160.585 236.039 160.766C235.722 160.946 235.492 161.23 235.395 161.56C235.298 161.89 235.342 162.242 235.518 162.543Z" fill="#060606"/>
<path d="M205.495 185.946C205.495 185.946 217.136 185.33 220.107 185.313C223.078 185.295 226.234 189.939 224.384 193.104C223.156 195.182 219.328 195.895 214.506 196.109C209.684 196.323 204.823 196.323 204.823 196.323C204.823 196.323 200.488 191.803 205.495 185.946Z" fill="#B3B3B3"/>
<path d="M214.652 196.108C214.652 196.108 222.026 196.019 224.442 193.104C224.442 193.104 223.877 194.887 221.013 195.984C218.961 196.705 216.798 197.132 214.603 197.249L214.652 196.108Z" fill="#37474F"/>
<path d="M178.511 159.075C174.849 158.496 173.319 166.68 176.982 167.25L182.827 167.785C180.45 167.562 182.096 159.958 183.908 160.404L178.511 159.075Z" fill="#B3B3B3"/>
<path d="M266.74 156.891C266.74 158.551 266.195 160.172 265.173 161.543C264.152 162.915 262.703 163.973 261.015 164.579C259.327 165.185 257.479 165.312 255.711 164.943C253.943 164.573 252.338 163.725 251.105 162.508L250.511 161.848C249.124 160.156 248.5 158.041 248.768 155.94C249.035 153.839 250.174 151.912 251.948 150.557C253.722 149.202 255.998 148.522 258.304 148.657C260.611 148.792 262.772 149.732 264.343 151.284L264.957 151.961C266.114 153.387 266.739 155.115 266.74 156.891Z" fill="#B3B3B3"/>
<path d="M266.74 156.891C266.74 158.55 266.195 160.172 265.173 161.543C264.152 162.914 262.703 163.972 261.015 164.579C259.327 165.185 257.479 165.312 255.711 164.942C253.943 164.573 252.338 163.724 251.105 162.507L250.51 161.848L212.948 120.33L228.777 111.968L264.343 151.265L264.957 151.943C266.118 153.373 266.743 155.109 266.74 156.891Z" fill="#B3B3B3"/>
<path d="M235.665 145.435C237.242 146.949 239.389 147.859 241.671 147.98C243.954 148.101 246.201 147.425 247.959 146.087C249.717 144.75 250.855 142.852 251.142 140.776C251.43 138.701 250.845 136.603 249.507 134.906L244.861 129.78C246.249 131.473 246.874 133.59 246.607 135.693C246.339 137.795 245.198 139.724 243.421 141.079C241.644 142.434 239.366 143.113 237.057 142.974C234.749 142.836 232.587 141.891 231.018 140.336L235.665 145.435Z" fill="#03045E" fill-opacity="0.2"/>
<path d="M228.174 46.7009C231.009 46.9897 233.751 47.8058 236.23 49.0991L224.803 43.019C217.137 38.1959 206.1 38.4812 193.835 44.9536C170.68 57.1939 151.898 86.9613 151.898 111.442C151.898 123.468 156.37 132.063 163.744 136.146L163.9 136.235L176.096 142.663C173.933 141.375 172.048 139.734 170.534 137.822C173.539 138.123 176.577 137.963 179.525 137.349C180.597 137.135 181.678 136.877 182.779 136.556C182.635 136.516 182.494 136.465 182.36 136.404C181.773 136.153 181.213 135.855 180.684 135.513C179.725 134.901 178.872 134.162 178.151 133.32C177.167 132.166 176.366 130.89 175.775 129.531C174.981 129.636 174.18 129.689 173.378 129.691C171.482 129.726 169.601 129.382 167.864 128.684C167.459 128.514 167.065 128.32 166.686 128.104C166.345 127.908 166.004 127.676 165.712 127.445C165.007 124.427 164.664 121.348 164.689 118.262C164.689 93.7902 183.47 64.0139 206.645 51.7736C209.604 50.1939 212.739 48.9088 215.997 47.9401C216.875 48.2683 217.7 48.7031 218.452 49.2328C219.247 49.7913 219.964 50.4381 220.585 51.1584C221.573 52.3147 222.376 53.5934 222.972 54.9563C223.769 54.8541 224.573 54.8034 225.378 54.8047C227.58 54.7506 229.759 55.2336 231.69 56.2044C232.179 56.4481 232.645 56.7284 233.083 57.0424C232.908 56.3292 232.723 55.6249 232.499 54.9563C231.619 51.9862 230.153 49.1885 228.174 46.7009Z" fill="#060606"/>
<path d="M236.23 49.0991L235.567 48.7693C233.264 47.6655 230.757 46.9641 228.174 46.701C225.401 46.418 222.597 46.5354 219.864 47.0487C218.548 47.277 217.247 47.5747 215.968 47.9402C212.71 48.9089 209.575 50.194 206.616 51.7737C183.441 64.014 164.66 93.7903 164.66 118.262C164.635 121.348 164.978 124.427 165.682 127.445C165.809 127.988 165.955 128.506 166.101 129.023C166.969 132.178 168.476 135.157 170.543 137.804C171.467 138.969 172.528 140.036 173.709 140.987C174.462 141.593 175.263 142.147 176.106 142.645C183.753 147.165 194.614 146.773 206.596 140.425C229.771 128.185 248.553 98.4172 248.553 73.9365C248.543 61.6961 243.838 53.0931 236.23 49.0991ZM231.651 56.2312C232.14 56.4749 232.606 56.7552 233.044 57.0692C233.779 57.6152 234.448 58.2308 235.041 58.9057C237.964 62.2578 239.513 67.4731 239.513 73.9632C239.513 95.3594 222.368 122.568 202.076 133.293C196.962 135.967 192.043 137.43 187.864 137.43C186.12 137.448 184.391 137.145 182.779 136.538C182.635 136.498 182.494 136.448 182.36 136.386C181.773 136.135 181.213 135.837 180.684 135.495C180.027 135.073 179.42 134.589 178.872 134.051C178.629 133.819 178.395 133.56 178.161 133.302C177.177 132.148 176.376 130.873 175.784 129.513C174.3 125.915 173.592 122.089 173.7 118.244C173.7 117.959 173.7 117.683 173.7 117.353C174.128 96.0458 191.088 69.4522 211.116 58.879C211.574 58.6383 212.042 58.3975 212.509 58.1747C215.739 56.5236 219.266 55.4154 222.923 54.9028C223.72 54.8007 224.524 54.75 225.329 54.7513C227.062 54.7376 228.781 55.0407 230.385 55.6428C230.824 55.8025 231.248 55.9964 231.651 56.2223V56.2312Z" fill="#B3B3B3"/>
<path d="M239.513 73.954C239.513 95.3501 222.368 122.559 202.076 133.284C200.845 133.939 199.577 134.534 198.277 135.067C195.032 136.5 191.494 137.295 187.893 137.402C186.15 137.421 184.42 137.118 182.808 136.511C182.664 136.471 182.524 136.421 182.389 136.359C181.803 136.108 181.242 135.81 180.713 135.468C179.755 134.856 178.901 134.117 178.181 133.275C177.927 132.963 177.664 132.66 177.431 132.312C177.888 132.312 178.405 132.374 178.853 132.374C183.032 132.374 187.951 130.939 193.065 128.238C213.328 117.575 230.482 90.4022 230.482 68.9348C230.482 63.0419 229.206 58.2367 226.781 54.8579C228.492 54.9608 230.157 55.4147 231.651 56.1862C232.14 56.43 232.606 56.7103 233.044 57.0243C233.779 57.5702 234.448 58.1858 235.041 58.8608C237.613 61.8116 239.123 66.1979 239.435 71.6271C239.483 72.4117 239.513 73.1784 239.513 73.954Z" fill="#37474F"/>
<path opacity="0.6" d="M235.597 71.4844C235.597 92.8805 218.452 120.089 198.16 130.814C193.046 133.489 188.136 134.951 183.948 134.951C182.208 134.969 180.481 134.666 178.872 134.059C178.629 133.827 178.395 133.569 178.161 133.31C177.177 132.157 176.376 130.881 175.784 129.521C174.3 125.924 173.592 122.097 173.7 118.253C173.7 117.967 173.7 117.691 173.7 117.361C174.128 96.0543 191.088 69.4606 211.116 58.8874C211.574 58.6467 212.042 58.406 212.509 58.1831C215.739 56.532 219.266 55.4239 222.923 54.9113C223.72 54.8091 224.524 54.7585 225.329 54.7597C227.062 54.746 228.781 55.0491 230.385 55.6512C230.648 55.8919 230.891 56.1505 231.125 56.409C234.048 59.7789 235.597 64.9942 235.597 71.4844Z" fill="white"/>
</svg>
