<svg width="22" height="21" viewBox="0 0 22 21" fill="none" xmlns="http://www.w3.org/2000/svg">
<path d="M9.90326 0.100098L19.8033 1.5141L21.2173 11.4141L12.0253 20.6061C11.9324 20.6991 11.8221 20.7728 11.7007 20.8232C11.5793 20.8735 11.4492 20.8994 11.3178 20.8994C11.1863 20.8994 11.0562 20.8735 10.9348 20.8232C10.8134 20.7728 10.7031 20.6991 10.6103 20.6061L0.710256 10.7061C0.52309 10.5186 0.417969 10.2645 0.417969 9.9996C0.417969 9.73468 0.52309 9.48059 0.710256 9.2931L9.90326 0.100098ZM10.6103 2.2221L2.83226 10.0001L11.3173 18.4851L19.0963 10.7071L18.0353 3.2821L10.6103 2.2221ZM12.7323 8.5851C12.5412 8.4006 12.3889 8.17991 12.2841 7.93591C12.1792 7.6919 12.1241 7.42946 12.1218 7.1639C12.1194 6.89834 12.1701 6.63498 12.2706 6.38919C12.3712 6.1434 12.5197 5.92009 12.7075 5.73231C12.8953 5.54452 13.1186 5.39602 13.3643 5.29545C13.6101 5.19489 13.8735 5.14429 14.1391 5.1466C14.4046 5.1489 14.6671 5.20408 14.9111 5.3089C15.1551 5.41371 15.3758 5.56608 15.5603 5.7571C15.9354 6.13211 16.1462 6.6408 16.1463 7.17124C16.1464 7.70169 15.9358 8.21045 15.5608 8.5856C15.1857 8.96075 14.6771 9.17156 14.1466 9.17165C13.6162 9.17174 13.1074 8.96011 12.7323 8.5851Z" fill="black"/>
</svg>
