<svg width="48" height="48" viewBox="0 0 48 48" fill="none" xmlns="http://www.w3.org/2000/svg">
<path d="M25.2151 45.06V35.1L21.7501 33L17.7451 35.1V45.06H25.2151Z" fill="#FFA500"/>
<path d="M32.475 10.5H11.76L16.5 35.415H38.985C39.5817 35.415 40.154 35.1779 40.576 34.756C40.998 34.334 41.235 33.7617 41.235 33.165V19.26C41.22 14.415 37.305 10.5 32.475 10.5Z" fill="#03045E"/>
<path d="M11.76 10.5C6.915 10.5 3 14.415 3 19.26V33.165C3 33.7617 3.23705 34.334 3.65901 34.756C4.08097 35.1779 4.65326 35.415 5.25 35.415H18.255C18.8517 35.415 19.424 35.1779 19.846 34.756C20.2679 34.334 20.505 33.7617 20.505 33.165V19.26C20.505 14.415 16.59 10.5 11.76 10.5Z" fill="#3F5FFF"/>
<path d="M11.76 12C10.8063 11.9988 9.86168 12.1858 8.98032 12.5502C8.09896 12.9147 7.29816 13.4494 6.62377 14.1238C5.94938 14.7982 5.41466 15.599 5.05023 16.4803C4.6858 17.3617 4.49882 18.3063 4.50001 19.26V33.165C4.50001 33.3639 4.57902 33.5547 4.71968 33.6953C4.86033 33.836 5.05109 33.915 5.25001 33.915H18.255C18.4539 33.915 18.6447 33.836 18.7853 33.6953C18.926 33.5547 19.005 33.3639 19.005 33.165V19.26C19.0066 18.3074 18.8204 17.3639 18.457 16.4833C18.0937 15.6028 17.5603 14.8025 16.8874 14.1282C16.2145 13.4539 15.4154 12.9189 14.5355 12.5537C13.6557 12.1886 12.7126 12.0004 11.76 12Z" fill="#321B41"/>
<path d="M45 28.698V20.802C45 20.0895 44.4465 19.5 43.776 19.5H40.2225C39.5535 19.5 39 20.0895 39 20.802V28.6965C39 29.4105 39.5535 30 40.224 30H43.7775C44.4465 30 45 29.412 45 28.698Z" fill="#F92F60"/>
<path d="M30.774 21.945C30.3745 22.6372 29.7578 23.1782 29.0195 23.4841C28.2811 23.79 27.4625 23.8437 26.6905 23.6368C25.9186 23.43 25.2364 22.9742 24.75 22.3401C24.2635 21.706 23.9999 20.9292 24 20.13C23.9999 19.3308 24.2635 18.5539 24.75 17.9198C25.2364 17.2857 25.9186 16.8299 26.6905 16.6231C27.4625 16.4162 28.2811 16.4699 29.0195 16.7758C29.7578 17.0818 30.3745 17.6228 30.774 18.315H44.13C45.135 18.315 45.945 19.125 45.945 20.13C45.945 21.135 45.135 21.945 44.13 21.945H30.774Z" fill="#D3D3D3"/>
</svg>
